<svg xmlns="http://www.w3.org/2000/svg" width="17.21" height="864.835" viewBox="0 0 17.21 864.835">
  <g id="Group_36" data-name="Group 36" opacity="0.04">
    <path id="Path_1" data-name="Path 1" d="M1348.914,12.282h14.258s6.5,9.392,0,18.784c-.006.067-11.083-.831-11.083-.831V40.264c0,2.507,11.083.9,11.083.9s6.293,11.226,0,18.111c-.156.3-11.083-.6-11.083-.6V66.7h-3.237Z" transform="translate(-1348.852 -12.282)" fill="#211f20"/>
    <path id="Path_1-2" data-name="Path 1" d="M1348.914,12.282h14.258s6.5,9.392,0,18.784c-.006.067-11.083-.831-11.083-.831V40.264c0,2.507,11.083.9,11.083.9s6.293,11.226,0,18.111c-.156.3-11.083-.6-11.083-.6V66.7h-3.237Z" transform="translate(-1348.852 41.718)" fill="#211f20"/>
    <path id="Path_1-3" data-name="Path 1" d="M1348.914,12.282h14.258s6.5,9.392,0,18.784c-.006.067-11.083-.831-11.083-.831V40.264c0,2.507,11.083.9,11.083.9s6.293,11.226,0,18.111c-.156.3-11.083-.6-11.083-.6V66.7h-3.237Z" transform="translate(-1348.852 95.718)" fill="#211f20"/>
    <path id="Path_1-4" data-name="Path 1" d="M1348.914,12.282h14.258s6.5,9.392,0,18.784c-.006.067-11.083-.831-11.083-.831V40.264c0,2.507,11.083.9,11.083.9s6.293,11.226,0,18.111c-.156.3-11.083-.6-11.083-.6V66.7h-3.237Z" transform="translate(-1348.852 149.718)" fill="#211f20"/>
    <path id="Path_1-5" data-name="Path 1" d="M1348.914,12.282h14.258s6.5,9.392,0,18.784c-.006.067-11.083-.831-11.083-.831V40.264c0,2.507,11.083.9,11.083.9s6.293,11.226,0,18.111c-.156.3-11.083-.6-11.083-.6V66.7h-3.237Z" transform="translate(-1348.852 203.718)" fill="#211f20"/>
    <path id="Path_1-6" data-name="Path 1" d="M1348.914,12.282h14.258s6.5,9.392,0,18.784c-.006.067-11.083-.831-11.083-.831V40.264c0,2.507,11.083.9,11.083.9s6.293,11.226,0,18.111c-.156.3-11.083-.6-11.083-.6V66.7h-3.237Z" transform="translate(-1348.852 257.718)" fill="#211f20"/>
    <path id="Path_1-7" data-name="Path 1" d="M1348.914,12.282h14.258s6.5,9.392,0,18.784c-.006.067-11.083-.831-11.083-.831V40.264c0,2.507,11.083.9,11.083.9s6.293,11.226,0,18.111c-.156.3-11.083-.6-11.083-.6V66.7h-3.237Z" transform="translate(-1348.852 311.718)" fill="#211f20"/>
    <path id="Path_1-8" data-name="Path 1" d="M1348.914,12.282h14.258s6.5,9.392,0,18.784c-.006.067-11.083-.831-11.083-.831V40.264c0,2.507,11.083.9,11.083.9s6.293,11.226,0,18.111c-.156.3-11.083-.6-11.083-.6V66.7h-3.237Z" transform="translate(-1348.852 365.718)" fill="#211f20"/>
    <path id="Path_1-9" data-name="Path 1" d="M1348.914,12.282h14.258s6.5,9.392,0,18.784c-.006.067-11.083-.831-11.083-.831V40.264c0,2.507,11.083.9,11.083.9s6.293,11.226,0,18.111c-.156.3-11.083-.6-11.083-.6V66.7h-3.237Z" transform="translate(-1348.852 419.718)" fill="#211f20"/>
    <path id="Path_1-10" data-name="Path 1" d="M1348.914,12.282h14.258s6.5,9.392,0,18.784c-.006.067-11.083-.831-11.083-.831V40.264c0,2.507,11.083.9,11.083.9s6.293,11.226,0,18.111c-.156.3-11.083-.6-11.083-.6V66.7h-3.237Z" transform="translate(-1348.852 473.718)" fill="#211f20"/>
    <path id="Path_1-11" data-name="Path 1" d="M1348.914,12.282h14.258s6.5,9.392,0,18.784c-.006.067-11.083-.831-11.083-.831V40.264c0,2.507,11.083.9,11.083.9s6.293,11.226,0,18.111c-.156.3-11.083-.6-11.083-.6V66.7h-3.237Z" transform="translate(-1348.852 527.718)" fill="#211f20"/>
    <path id="Path_1-12" data-name="Path 1" d="M1348.914,12.282h14.258s6.5,9.392,0,18.784c-.006.067-11.083-.831-11.083-.831V40.264c0,2.507,11.083.9,11.083.9s6.293,11.226,0,18.111c-.156.3-11.083-.6-11.083-.6V66.7h-3.237Z" transform="translate(-1348.852 581.718)" fill="#211f20"/>
    <path id="Path_1-13" data-name="Path 1" d="M1348.914,12.282h14.258s6.5,9.392,0,18.784c-.006.067-11.083-.831-11.083-.831V40.264c0,2.507,11.083.9,11.083.9s6.293,11.226,0,18.111c-.156.3-11.083-.6-11.083-.6V66.7h-3.237Z" transform="translate(-1348.852 635.718)" fill="#211f20"/>
    <path id="Path_1-14" data-name="Path 1" d="M1348.914,12.282h14.258s6.5,9.392,0,18.784c-.006.067-11.083-.831-11.083-.831V40.264c0,2.507,11.083.9,11.083.9s6.293,11.226,0,18.111c-.156.3-11.083-.6-11.083-.6V66.7h-3.237Z" transform="translate(-1348.852 689.718)" fill="#211f20"/>
    <path id="Path_1-15" data-name="Path 1" d="M1348.914,12.282h14.258s6.5,9.392,0,18.784c-.006.067-11.083-.831-11.083-.831V40.264c0,2.507,11.083.9,11.083.9s6.293,11.226,0,18.111c-.156.3-11.083-.6-11.083-.6V66.7h-3.237Z" transform="translate(-1348.852 743.718)" fill="#211f20"/>
    <path id="Path_76" data-name="Path 76" d="M1348.914,12.282h14.258s6.5,9.392,0,18.784c-.006.067-11.083-.831-11.083-.831V40.264c0,2.507,11.083.9,11.083.9s6.293,11.226,0,18.111c-.156.3-11.083-.6-11.083-.6V66.7h-3.237Z" transform="translate(-1348.852 798.135)" fill="#211f20"/>
  </g>
</svg>
