<svg xmlns="http://www.w3.org/2000/svg" width="19.843" height="896.644" viewBox="0 0 19.843 896.644">
  <g id="Group_52" data-name="Group 52" transform="translate(-1348 -281.583)">
    <g id="Group_37" data-name="Group 37" transform="translate(1348 768)" opacity="0.04">
      <path id="Path_1" data-name="Path 1" d="M1366,12.282h-14.258s-6.5,9.392,0,18.784c.006.067,11.083-.831,11.083-.831V40.264c0,2.507-11.083.9-11.083.9s-6.293,11.226,0,18.111c.156.3,11.083-.6,11.083-.6V66.7h3.237Z" transform="translate(-1348.852 -12.282)" fill="#211f20"/>
      <path id="Path_1-2" data-name="Path 1" d="M1366,12.282h-14.258s-6.5,9.392,0,18.784c.006.067,11.083-.831,11.083-.831V40.264c0,2.507-11.083.9-11.083.9s-6.293,11.226,0,18.111c.156.3,11.083-.6,11.083-.6V66.7h3.237Z" transform="translate(-1348.852 41.718)" fill="#211f20"/>
      <path id="Path_1-3" data-name="Path 1" d="M1366,12.282h-14.258s-6.5,9.392,0,18.784c.006.067,11.083-.831,11.083-.831V40.264c0,2.507-11.083.9-11.083.9s-6.293,11.226,0,18.111c.156.3,11.083-.6,11.083-.6V66.7h3.237Z" transform="translate(-1348.852 95.718)" fill="#211f20"/>
    </g>
    <g id="Group_53" data-name="Group 53" transform="translate(1348 930.417)" opacity="0.04">
      <path id="Path_1-4" data-name="Path 1" d="M1366,12.282h-14.258s-6.5,9.392,0,18.784c.006.067,11.083-.831,11.083-.831V40.264c0,2.507-11.083.9-11.083.9s-6.293,11.226,0,18.111c.156.3,11.083-.6,11.083-.6V66.7h3.237Z" transform="translate(-1348.852 -12.282)" fill="#211f20"/>
      <path id="Path_1-5" data-name="Path 1" d="M1366,12.282h-14.258s-6.5,9.392,0,18.784c.006.067,11.083-.831,11.083-.831V40.264c0,2.507-11.083.9-11.083.9s-6.293,11.226,0,18.111c.156.3,11.083-.6,11.083-.6V66.7h3.237Z" transform="translate(-1348.852 41.718)" fill="#211f20"/>
      <path id="Path_1-6" data-name="Path 1" d="M1366,12.282h-14.258s-6.5,9.392,0,18.784c.006.067,11.083-.831,11.083-.831V40.264c0,2.507-11.083.9-11.083.9s-6.293,11.226,0,18.111c.156.3,11.083-.6,11.083-.6V66.7h3.237Z" transform="translate(-1348.852 95.718)" fill="#211f20"/>
      <path id="Path_77" data-name="Path 77" d="M1366,12.282h-14.258s-6.5,9.392,0,18.784c.006.067,11.083-.831,11.083-.831V40.264c0,2.507-11.083.9-11.083.9s-6.293,11.226,0,18.111c.156.3,11.083-.6,11.083-.6V66.7h3.237Z" transform="translate(-1348.852 148.718)" fill="#211f20"/>
      <path id="Path_78" data-name="Path 78" d="M1366,12.282h-14.258s-6.5,9.392,0,18.784c.006.067,11.083-.831,11.083-.831V40.264c0,2.507-11.083.9-11.083.9S1376.778,59.523,1366,12.282Z" transform="translate(-1348.852 203.135)" fill="#211f20"/>
    </g>
    <g id="Group_43" data-name="Group 43" transform="translate(1348 281.583)" opacity="0.04">
      <path id="Path_1-7" data-name="Path 1" d="M1366,12.282h-14.258s-6.5,9.392,0,18.784c.006.067,11.083-.831,11.083-.831V40.264c0,2.507-11.083.9-11.083.9s-6.293,11.226,0,18.111c.156.3,11.083-.6,11.083-.6V66.7h3.237Z" transform="translate(-1348.852 -12.282)" fill="#211f20"/>
      <path id="Path_1-8" data-name="Path 1" d="M1366,12.282h-14.258s-6.5,9.392,0,18.784c.006.067,11.083-.831,11.083-.831V40.264c0,2.507-11.083.9-11.083.9s-6.293,11.226,0,18.111c.156.3,11.083-.6,11.083-.6V66.7h3.237Z" transform="translate(-1348.852 41.718)" fill="#211f20"/>
      <path id="Path_1-9" data-name="Path 1" d="M1366,12.282h-14.258s-6.5,9.392,0,18.784c.006.067,11.083-.831,11.083-.831V40.264c0,2.507-11.083.9-11.083.9s-6.293,11.226,0,18.111c.156.3,11.083-.6,11.083-.6V66.7h3.237Z" transform="translate(-1348.852 95.718)" fill="#211f20"/>
      <path id="Path_1-10" data-name="Path 1" d="M1366,12.282h-14.258s-6.5,9.392,0,18.784c.006.067,11.083-.831,11.083-.831V40.264c0,2.507-11.083.9-11.083.9s-6.293,11.226,0,18.111c.156.3,11.083-.6,11.083-.6V66.7h3.237Z" transform="translate(-1348.852 149.718)" fill="#211f20"/>
      <path id="Path_1-11" data-name="Path 1" d="M1366,12.282h-14.258s-6.5,9.392,0,18.784c.006.067,11.083-.831,11.083-.831V40.264c0,2.507-11.083.9-11.083.9s-6.293,11.226,0,18.111c.156.3,11.083-.6,11.083-.6V66.7h3.237Z" transform="translate(-1348.852 203.718)" fill="#211f20"/>
      <path id="Path_1-12" data-name="Path 1" d="M1366,12.282h-14.258s-6.5,9.392,0,18.784c.006.067,11.083-.831,11.083-.831V40.264c0,2.507-11.083.9-11.083.9s-6.293,11.226,0,18.111c.156.3,11.083-.6,11.083-.6V66.7h3.237Z" transform="translate(-1348.852 257.718)" fill="#211f20"/>
      <path id="Path_1-13" data-name="Path 1" d="M1366,12.282h-14.258s-6.5,9.392,0,18.784c.006.067,11.083-.831,11.083-.831V40.264c0,2.507-11.083.9-11.083.9s-6.293,11.226,0,18.111c.156.3,11.083-.6,11.083-.6V66.7h3.237Z" transform="translate(-1348.852 311.718)" fill="#211f20"/>
      <path id="Path_1-14" data-name="Path 1" d="M1366,12.282h-14.258s-6.5,9.392,0,18.784c.006.067,11.083-.831,11.083-.831V40.264c0,2.507-11.083.9-11.083.9s-6.293,11.226,0,18.111c.156.3,11.083-.6,11.083-.6V66.7h3.237Z" transform="translate(-1348.852 365.718)" fill="#211f20"/>
      <path id="Path_1-15" data-name="Path 1" d="M1366,12.282h-14.258s-6.5,9.392,0,18.784c.006.067,11.083-.831,11.083-.831V40.264c0,2.507-11.083.9-11.083.9s-6.293,11.226,0,18.111c.156.3,11.083-.6,11.083-.6V66.7h3.237Z" transform="translate(-1348.852 419.718)" fill="#211f20"/>
    </g>
  </g>
</svg>
